<?xml version="1.0" encoding="UTF-8" standalone="no"?>
<!DOCTYPE svg PUBLIC "-//W3C//DTD SVG 1.1//EN"
 "http://www.w3.org/Graphics/SVG/1.1/DTD/svg11.dtd">
<!-- Generated by graphviz version 2.40.1 (20161225.0304)
 -->
<!-- Title: dependencies Pages: 1 -->
<svg width="775pt" height="284pt"
 viewBox="0.00 0.00 775.00 284.00" xmlns="http://www.w3.org/2000/svg" xmlns:xlink="http://www.w3.org/1999/xlink">
<g id="graph0" class="graph" transform="scale(1 1) rotate(0) translate(4 280)">
<title>dependencies</title>
<polygon fill="#ffffff" stroke="transparent" points="-4,4 -4,-280 771,-280 771,4 -4,4"/>
<text text-anchor="start" x="362.5091" y="-42.4" font-family="sans-serif" font-weight="bold" font-size="14.00" fill="#000000">Legend</text>
<polygon fill="#ffffb3" stroke="transparent" points="149.5,-10 149.5,-30 169.5,-30 169.5,-10 149.5,-10"/>
<text text-anchor="start" x="173.129" y="-15.4" font-family="sans-serif" font-size="14.00" fill="#000000"> &#160;Declarations</text>
<polygon fill="#8dd3c7" stroke="transparent" points="262.5,-10 262.5,-30 282.5,-30 282.5,-10 262.5,-10"/>
<text text-anchor="start" x="286.2251" y="-15.4" font-family="sans-serif" font-size="14.00" fill="#000000"> &#160;Module</text>
<polygon fill="#80b1d3" stroke="transparent" points="348.5,-10 348.5,-30 368.5,-30 368.5,-10 348.5,-10"/>
<text text-anchor="start" x="372.2812" y="-15.4" font-family="sans-serif" font-size="14.00" fill="#000000"> &#160;Bootstrap</text>
<polygon fill="#fdb462" stroke="transparent" points="445.5,-10 445.5,-30 465.5,-30 465.5,-10 445.5,-10"/>
<text text-anchor="start" x="469.1732" y="-15.4" font-family="sans-serif" font-size="14.00" fill="#000000"> &#160;Providers</text>
<polygon fill="#fb8072" stroke="transparent" points="541.5,-10 541.5,-30 561.5,-30 561.5,-10 541.5,-10"/>
<text text-anchor="start" x="565.2258" y="-15.4" font-family="sans-serif" font-size="14.00" fill="#000000"> &#160;Exports</text>
<g id="clust1" class="cluster">
<title>cluster_ServicesModule</title>
<polygon fill="none" stroke="#000000" stroke-dasharray="1,5" points="8,-70 8,-268 759,-268 759,-70 8,-70"/>
</g>
<g id="clust2" class="cluster">
<title>cluster_ServicesModule_declarations</title>
<polygon fill="none" stroke="#000000" points="607,-78 607,-130 751,-130 751,-78 607,-78"/>
</g>
<g id="clust5" class="cluster">
<title>cluster_ServicesModule_exports</title>
<polygon fill="none" stroke="#000000" points="331,-208 331,-260 479,-260 479,-208 331,-208"/>
</g>
<g id="clust7" class="cluster">
<title>cluster_ServicesModule_providers</title>
<polygon fill="none" stroke="#000000" points="16,-78 16,-130 599,-130 599,-78 16,-78"/>
</g>
<!-- ServicesComponent -->
<g id="node1" class="node">
<title>ServicesComponent</title>
<polygon fill="#ffffb3" stroke="#000000" points="743.2548,-122 614.7452,-122 614.7452,-86 743.2548,-86 743.2548,-122"/>
<text text-anchor="middle" x="679" y="-99.8" font-family="Times,serif" font-size="14.00" fill="#000000">ServicesComponent</text>
</g>
<!-- ServicesModule -->
<g id="node2" class="node">
<title>ServicesModule</title>
<polygon fill="#8dd3c7" stroke="#000000" points="458.472,-187 455.472,-191 434.472,-191 431.472,-187 351.528,-187 351.528,-151 458.472,-151 458.472,-187"/>
<text text-anchor="middle" x="405" y="-164.8" font-family="Times,serif" font-size="14.00" fill="#000000">ServicesModule</text>
</g>
<!-- ServicesComponent&#45;&gt;ServicesModule -->
<g id="edge1" class="edge">
<title>ServicesComponent&#45;&gt;ServicesModule</title>
<path fill="none" stroke="#000000" d="M679,-122.2843C679,-143.3211 679,-175 679,-175 679,-175 468.4804,-175 468.4804,-175"/>
<polygon fill="#000000" stroke="#000000" points="468.4804,-171.5001 458.4804,-175 468.4804,-178.5001 468.4804,-171.5001"/>
</g>
<!-- ServicesComponent  -->
<g id="node3" class="node">
<title>ServicesComponent </title>
<polygon fill="#fb8072" stroke="#000000" points="471.2548,-252 338.7452,-252 338.7452,-216 471.2548,-216 471.2548,-252"/>
<text text-anchor="middle" x="405" y="-229.8" font-family="Times,serif" font-size="14.00" fill="#000000">ServicesComponent </text>
</g>
<!-- ServicesModule&#45;&gt;ServicesComponent  -->
<g id="edge2" class="edge">
<title>ServicesModule&#45;&gt;ServicesComponent </title>
<path fill="none" stroke="#000000" stroke-dasharray="5,2" d="M405,-187.1061C405,-187.1061 405,-205.991 405,-205.991"/>
<polygon fill="#000000" stroke="#000000" points="401.5001,-205.9909 405,-215.991 408.5001,-205.991 401.5001,-205.9909"/>
</g>
<!-- ApiService -->
<g id="node4" class="node">
<title>ApiService</title>
<ellipse fill="#fdb462" stroke="#000000" cx="537" cy="-104" rx="54.4508" ry="18"/>
<text text-anchor="middle" x="537" y="-99.8" font-family="Times,serif" font-size="14.00" fill="#000000">ApiService</text>
</g>
<!-- ApiService&#45;&gt;ServicesModule -->
<g id="edge3" class="edge">
<title>ApiService&#45;&gt;ServicesModule</title>
<path fill="none" stroke="#000000" d="M537,-122.0225C537,-139.3734 537,-163 537,-163 537,-163 468.6895,-163 468.6895,-163"/>
<polygon fill="#000000" stroke="#000000" points="468.6895,-159.5001 458.6895,-163 468.6894,-166.5001 468.6895,-159.5001"/>
</g>
<!-- AuthService -->
<g id="node5" class="node">
<title>AuthService</title>
<ellipse fill="#fdb462" stroke="#000000" cx="405" cy="-104" rx="59.1083" ry="18"/>
<text text-anchor="middle" x="405" y="-99.8" font-family="Times,serif" font-size="14.00" fill="#000000">AuthService</text>
</g>
<!-- AuthService&#45;&gt;ServicesModule -->
<g id="edge4" class="edge">
<title>AuthService&#45;&gt;ServicesModule</title>
<path fill="none" stroke="#000000" d="M405,-122.1061C405,-122.1061 405,-140.991 405,-140.991"/>
<polygon fill="#000000" stroke="#000000" points="401.5001,-140.9909 405,-150.991 408.5001,-140.991 401.5001,-140.9909"/>
</g>
<!-- SharedDataService -->
<g id="node6" class="node">
<title>SharedDataService</title>
<ellipse fill="#fdb462" stroke="#000000" cx="243" cy="-104" rx="85.0676" ry="18"/>
<text text-anchor="middle" x="243" y="-99.8" font-family="Times,serif" font-size="14.00" fill="#000000">SharedDataService</text>
</g>
<!-- SharedDataService&#45;&gt;ServicesModule -->
<g id="edge5" class="edge">
<title>SharedDataService&#45;&gt;ServicesModule</title>
<path fill="none" stroke="#000000" d="M243,-122.0225C243,-139.3734 243,-163 243,-163 243,-163 341.5062,-163 341.5062,-163"/>
<polygon fill="#000000" stroke="#000000" points="341.5062,-166.5001 351.5062,-163 341.5061,-159.5001 341.5062,-166.5001"/>
</g>
<!-- UserService -->
<g id="node7" class="node">
<title>UserService</title>
<ellipse fill="#fdb462" stroke="#000000" cx="82" cy="-104" rx="58.4415" ry="18"/>
<text text-anchor="middle" x="82" y="-99.8" font-family="Times,serif" font-size="14.00" fill="#000000">UserService</text>
</g>
<!-- UserService&#45;&gt;ServicesModule -->
<g id="edge6" class="edge">
<title>UserService&#45;&gt;ServicesModule</title>
<path fill="none" stroke="#000000" d="M82,-122.2843C82,-143.3211 82,-175 82,-175 82,-175 341.3005,-175 341.3005,-175"/>
<polygon fill="#000000" stroke="#000000" points="341.3006,-178.5001 351.3005,-175 341.3005,-171.5001 341.3006,-178.5001"/>
</g>
</g>
</svg>
